<svg width="55" height="54" viewBox="0 0 55 54" fill="none" xmlns="http://www.w3.org/2000/svg">
<path d="M14.5293 49.4706C13.2918 49.4706 12.2328 49.0303 11.3523 48.1498C10.4718 47.2693 10.0308 46.2096 10.0293 44.9706V8.97058C10.0293 7.73308 10.4703 6.67408 11.3523 5.79358C12.2343 4.91308 13.2933 4.47208 14.5293 4.47058H41.5293C42.7668 4.47058 43.8265 4.91158 44.7085 5.79358C45.5905 6.67558 46.0308 7.73458 46.0293 8.97058V44.9706C46.0293 46.2081 45.5891 47.2678 44.7085 48.1498C43.8281 49.0318 42.7683 49.4721 41.5293 49.4706H14.5293ZM25.7793 24.7206L31.4043 21.3456L37.0293 24.7206V8.97058H25.7793V24.7206Z" fill="#272727"/>
</svg>
