<svg width="26" height="26" viewBox="0 0 26 26" fill="none" xmlns="http://www.w3.org/2000/svg">
<path d="M2.84615 3.76923C2.35652 3.76923 1.88695 3.96374 1.54073 4.30995C1.19451 4.65617 1 5.12574 1 5.61538V23.1538C1 23.6434 1.19451 24.1131 1.54073 24.4593C1.88695 24.8054 2.35652 25 2.84615 25H23.1538C23.6434 25 24.1131 24.8054 24.4593 24.4593C24.8054 24.1131 25 23.6434 25 23.1538V5.61538C25 5.12574 24.8054 4.65617 24.4593 4.30995C24.1131 3.96374 23.6434 3.76923 23.1538 3.76923H19.4615" stroke="black" stroke-width="2" stroke-linecap="round" stroke-linejoin="round"/>
<path d="M1 10.2308H25" stroke="black" stroke-width="2" stroke-linecap="round" stroke-linejoin="round"/>
<path d="M6.53857 1V6.53846" stroke="black" stroke-width="2" stroke-linecap="round" stroke-linejoin="round"/>
<path d="M19.4614 1V6.53846" stroke="black" stroke-width="2" stroke-linecap="round" stroke-linejoin="round"/>
<path d="M6.53857 3.76923H15.7693" stroke="black" stroke-width="2" stroke-linecap="round" stroke-linejoin="round"/>
</svg>
