<svg width="56" height="56" viewBox="0 0 56 56" fill="none" xmlns="http://www.w3.org/2000/svg">
<path d="M4.66666 51.3333V9.33329C4.66666 8.04996 5.12399 6.95174 6.03866 6.03863C6.95332 5.12551 8.05155 4.66818 9.33332 4.66663H46.6667C47.95 4.66663 49.049 5.12396 49.9637 6.03863C50.8783 6.95329 51.3349 8.05151 51.3333 9.33329V37.3333C51.3333 38.6166 50.8768 39.7156 49.9637 40.6303C49.0505 41.545 47.9515 42.0015 46.6667 42H14L4.66666 51.3333ZM28 35C28.6611 35 29.2157 34.776 29.6637 34.328C30.1117 33.88 30.3349 33.3262 30.3333 32.6666C30.3318 32.0071 30.1078 31.4533 29.6613 31.0053C29.2149 30.5573 28.6611 30.3333 28 30.3333C27.3389 30.3333 26.7851 30.5573 26.3387 31.0053C25.8922 31.4533 25.6682 32.0071 25.6667 32.6666C25.6651 33.3262 25.8891 33.8807 26.3387 34.3303C26.7882 34.7798 27.342 35.0031 28 35ZM25.6667 25.6666H30.3333V11.6666H25.6667V25.6666Z" fill="black"/>
</svg>
