<svg width="39" height="39" viewBox="0 0 39 39" fill="none" xmlns="http://www.w3.org/2000/svg">
<path fill-rule="evenodd" clip-rule="evenodd" d="M4.68 0C2.09531 0 0 2.09531 0 4.68V34.32C0 36.9047 2.09531 39 4.68 39H34.32C36.9047 39 39 36.9047 39 34.32V4.68C39 2.09531 36.9047 0 34.32 0H4.68ZM7.16642 24.6024C7.32476 24.7108 7.58702 24.765 7.95318 24.765C8.31934 24.765 8.58159 24.7108 8.73993 24.6024C8.89827 24.494 8.99723 24.356 9.03682 24.1884C9.0764 24.011 9.0962 23.8287 9.0962 23.6414V21.7048H10.9963C11.4119 21.7048 11.8325 21.6309 12.2581 21.483C12.6836 21.3253 13.0745 21.0987 13.4308 20.803C13.7969 20.4975 14.0889 20.118 14.3066 19.6646C14.5342 19.2113 14.648 18.684 14.648 18.0828C14.648 17.4717 14.5342 16.9395 14.3066 16.4862C14.0889 16.0328 13.7969 15.6533 13.4308 15.3478C13.0745 15.0324 12.6836 14.8008 12.2581 14.653C11.8424 14.5051 11.4268 14.4312 11.0111 14.4312H7.96802C7.60186 14.4312 7.3396 14.4854 7.18127 14.5939C7.02293 14.7023 6.92396 14.8452 6.88438 15.0226C6.84479 15.1901 6.825 15.3675 6.825 15.5548V23.6267C6.825 23.8139 6.84479 23.9962 6.88438 24.1737C6.92396 24.3511 7.01798 24.494 7.16642 24.6024ZM11.0111 19.4577H9.0962V16.6783H10.9963C11.2734 16.6783 11.5158 16.7375 11.7237 16.8558C11.9414 16.974 12.1096 17.1366 12.2284 17.3436C12.3471 17.5506 12.4065 17.792 12.4065 18.068C12.4065 18.3932 12.3323 18.6594 12.1838 18.8663C12.0453 19.0733 11.8671 19.2261 11.6494 19.3246C11.4416 19.4133 11.2288 19.4577 11.0111 19.4577ZM15.9644 24.6024C16.1228 24.7108 16.3751 24.765 16.7215 24.765H19.3638C20.0961 24.765 20.7691 24.6319 21.3826 24.3658C22.0061 24.0997 22.5504 23.7351 23.0155 23.2719C23.4806 22.7988 23.8419 22.2469 24.0991 21.6161C24.3565 20.9755 24.4851 20.2856 24.4851 19.5464C24.4851 18.817 24.3565 18.1419 24.0991 17.521C23.8419 16.9001 23.4806 16.358 23.0155 15.8948C22.5504 15.4316 22.011 15.0719 21.3975 14.8156C20.7839 14.5594 20.1208 14.4312 19.4083 14.4312H16.7363C16.3702 14.4214 16.1079 14.4707 15.9496 14.5791C15.7912 14.6875 15.6923 14.8304 15.6527 15.0078C15.6131 15.1753 15.5933 15.3527 15.5933 15.54V23.6267C15.5933 23.8238 15.618 24.011 15.6675 24.1884C15.717 24.356 15.816 24.494 15.9644 24.6024ZM19.4083 22.5031H17.8497V16.6783H19.3935C19.9378 16.6783 20.4227 16.8065 20.8482 17.0627C21.2738 17.3091 21.6102 17.6541 21.8576 18.0976C22.1051 18.5411 22.2288 19.0437 22.2288 19.6055C22.2288 20.1673 22.1051 20.665 21.8576 21.0987C21.6102 21.5323 21.2738 21.8773 20.8482 22.1335C20.4227 22.3799 19.9427 22.5031 19.4083 22.5031ZM25.999 24.6172C26.1574 24.7157 26.4147 24.765 26.771 24.765C27.147 24.765 27.4093 24.7157 27.5577 24.6172C27.716 24.5088 27.815 24.3708 27.8546 24.2032C27.8942 24.0258 27.914 23.8435 27.914 23.6562V20.5369H30.9422C31.15 20.5369 31.3282 20.5221 31.4766 20.4925C31.635 20.463 31.7587 20.3841 31.8477 20.256C31.9368 20.118 31.9813 19.8913 31.9813 19.5759C31.9813 19.2507 31.9368 19.0191 31.8477 18.8811C31.7587 18.7431 31.635 18.6594 31.4766 18.6298C31.3282 18.6002 31.155 18.5854 30.9571 18.5854H27.914V16.6783H30.837C31.0349 16.6783 31.218 16.6636 31.3862 16.634C31.5644 16.5946 31.7079 16.496 31.8167 16.3383C31.9256 16.1806 31.98 15.9244 31.98 15.5696C31.98 15.1951 31.9256 14.9289 31.8167 14.7713C31.7178 14.6136 31.5842 14.5199 31.4159 14.4904C31.2477 14.4509 31.0646 14.4312 30.8667 14.4312H26.8155C26.38 14.4312 26.0782 14.5101 25.91 14.6678C25.7417 14.8255 25.6576 15.1211 25.6576 15.5548V23.6414C25.6576 23.8287 25.6725 24.011 25.7022 24.1884C25.7417 24.3658 25.8407 24.5088 25.999 24.6172Z" fill="#EA3434"/>
</svg>
