<svg width="54" height="54" viewBox="0 0 54 54" fill="none" xmlns="http://www.w3.org/2000/svg">
<path d="M27.225 47.25C26.5875 47.25 26.0535 47.034 25.623 46.602C25.1925 46.17 24.9765 45.636 24.975 45C24.975 44.7375 25.0312 44.4653 25.1438 44.1833C25.2563 43.9013 25.425 43.6485 25.65 43.425L36.0562 33.0188L34.425 31.3875L24.075 41.7938C23.85 42.0188 23.6063 42.1875 23.3438 42.3C23.0812 42.4125 22.8 42.4688 22.5 42.4688C21.8625 42.4688 21.3285 42.2535 20.898 41.823C20.4675 41.3925 20.2515 40.8578 20.25 40.2188C20.25 39.8438 20.3062 39.534 20.4187 39.2895C20.5312 39.045 20.6812 38.8298 20.8687 38.6438L31.275 28.2375L29.7 26.6625L19.2937 37.0125C19.0687 37.2375 18.825 37.4063 18.5625 37.5188C18.3 37.6313 18 37.6875 17.6625 37.6875C17.0625 37.6875 16.5375 37.4625 16.0875 37.0125C15.6375 36.5625 15.4125 36.0375 15.4125 35.4375C15.4125 35.1375 15.4688 34.8563 15.5813 34.5938C15.6938 34.3313 15.8625 34.0875 16.0875 33.8625L26.4937 23.4563L24.8625 21.8813L14.5125 32.2875C14.325 32.475 14.1 32.625 13.8375 32.7375C13.575 32.85 13.2562 32.9063 12.8812 32.9063C12.2437 32.9063 11.709 32.6903 11.277 32.2583C10.845 31.8263 10.6297 31.2923 10.6312 30.6563C10.6312 30.3563 10.6875 30.075 10.8 29.8125C10.9125 29.55 11.0813 29.3063 11.3063 29.0813L23.85 16.5375L32.2875 25.0313C32.7 25.4438 33.1875 25.7723 33.75 26.0168C34.3125 26.2613 34.875 26.3828 35.4375 26.3813C36.6375 26.3813 37.6875 25.9598 38.5875 25.1168C39.4875 24.2738 39.9375 23.1953 39.9375 21.8813C39.9375 21.3563 39.8438 20.8125 39.6562 20.25C39.4688 19.6875 39.1312 19.1625 38.6437 18.675L28.575 8.60626C29.2125 8.00626 29.925 7.54726 30.7125 7.22926C31.5 6.91126 32.2875 6.75151 33.075 6.75001C34.05 6.75001 34.95 6.90976 35.775 7.22926C36.6 7.54876 37.35 8.04526 38.025 8.71876L47.5312 18.2813C48.2062 18.9563 48.7035 19.7063 49.023 20.5313C49.3425 21.3563 49.5015 22.3125 49.5 23.4C49.5 24.15 49.3312 24.9098 48.9937 25.6793C48.6562 26.4488 48.1688 27.1515 47.5312 27.7875L28.8 46.575C28.5 46.875 28.2375 47.0625 28.0125 47.1375C27.7875 47.2125 27.525 47.25 27.225 47.25ZM7.93125 29.25L6.46875 27.7875C5.83125 27.1875 5.34375 26.475 5.00625 25.65C4.66875 24.825 4.5 23.9625 4.5 23.0625C4.5 22.0875 4.6875 21.1875 5.0625 20.3625C5.4375 19.5375 5.90625 18.8438 6.46875 18.2813L15.975 8.71876C16.575 8.11876 17.2875 7.64026 18.1125 7.28326C18.9375 6.92626 19.7437 6.74851 20.5312 6.75001C21.5438 6.75001 22.4438 6.89101 23.2312 7.17301C24.0187 7.45501 24.7875 7.97026 25.5375 8.71876L37.0688 20.25C37.2938 20.475 37.4625 20.7188 37.575 20.9813C37.6875 21.2438 37.7437 21.525 37.7437 21.825C37.7437 22.425 37.5187 22.95 37.0688 23.4C36.6188 23.85 36.0938 24.075 35.4937 24.075C35.1562 24.075 34.875 24.0285 34.65 23.9355C34.425 23.8425 34.1812 23.664 33.9187 23.4L23.7937 13.3875L7.93125 29.25Z" fill="#272727"/>
</svg>
