<svg width="56" height="56" viewBox="0 0 56 56" fill="none" xmlns="http://www.w3.org/2000/svg">
<path d="M21 34.8063V36.1666C21 38.9514 22.1063 41.6221 24.0754 43.5912C26.0445 45.5604 28.7152 46.6666 31.5 46.6666C34.2848 46.6666 36.9555 45.5604 38.9246 43.5912C40.8938 41.6221 42 38.9514 42 36.1666V32.27C40.4425 31.7195 39.1298 30.6362 38.2938 29.2114C37.4579 27.7867 37.1526 26.1122 37.4318 24.4841C37.711 22.856 38.5569 21.379 39.8198 20.3143C41.0828 19.2495 42.6815 18.6655 44.3334 18.6655C45.9852 18.6655 47.584 19.2495 48.8469 20.3143C50.1098 21.379 50.9557 22.856 51.2349 24.4841C51.5142 26.1122 51.2088 27.7867 50.3729 29.2114C49.5369 30.6362 48.2242 31.7195 46.6667 32.27V36.1666C46.6667 40.1891 45.0688 44.0468 42.2245 46.8911C39.3802 49.7354 35.5225 51.3333 31.5 51.3333C27.4776 51.3333 23.6199 49.7354 20.7756 46.8911C17.9313 44.0468 16.3334 40.1891 16.3334 36.1666V34.8063C13.0708 34.2548 10.109 32.5656 7.97332 30.0382C5.83766 27.5109 4.66618 24.3088 4.66669 21V9.33329C4.66669 8.09562 5.15835 6.90863 6.03352 6.03346C6.90869 5.15829 8.09568 4.66663 9.33335 4.66663H11.6667C12.2855 4.66663 12.879 4.91246 13.3166 5.35004C13.7542 5.78763 14 6.38112 14 6.99996C14 7.6188 13.7542 8.21229 13.3166 8.64988C12.879 9.08746 12.2855 9.33329 11.6667 9.33329H9.33335V21C9.33335 23.4753 10.3167 25.8493 12.067 27.5996C13.8174 29.35 16.1913 30.3333 18.6667 30.3333C21.142 30.3333 23.516 29.35 25.2664 27.5996C27.0167 25.8493 28 23.4753 28 21V9.33329H25.6667C25.0478 9.33329 24.4544 9.08746 24.0168 8.64988C23.5792 8.21229 23.3334 7.6188 23.3334 6.99996C23.3334 6.38112 23.5792 5.78763 24.0168 5.35004C24.4544 4.91246 25.0478 4.66663 25.6667 4.66663H28C29.2377 4.66663 30.4247 5.15829 31.2999 6.03346C32.175 6.90863 32.6667 8.09562 32.6667 9.33329V21C32.6672 24.3088 31.4957 27.5109 29.3601 30.0382C27.2244 32.5656 24.2626 34.2548 21 34.8063ZM44.3334 28C44.9522 28 45.5457 27.7541 45.9833 27.3165C46.4209 26.879 46.6667 26.2855 46.6667 25.6666C46.6667 25.0478 46.4209 24.4543 45.9833 24.0167C45.5457 23.5791 44.9522 23.3333 44.3334 23.3333C43.7145 23.3333 43.121 23.5791 42.6834 24.0167C42.2459 24.4543 42 25.0478 42 25.6666C42 26.2855 42.2459 26.879 42.6834 27.3165C43.121 27.7541 43.7145 28 44.3334 28Z" fill="#222320"/>
</svg>
