<svg width="20" height="20" viewBox="0 0 20 20" fill="none" xmlns="http://www.w3.org/2000/svg">
<g clip-path="url(#clip0_156_244)">
<path d="M6.42864 17.8572L0.714355 19.2858L2.14293 15.0001V2.14293C2.14293 1.76404 2.29344 1.40068 2.56134 1.13277C2.82926 0.864865 3.19261 0.714355 3.5715 0.714355H17.8572C18.2361 0.714355 18.5995 0.864865 18.8674 1.13277C19.1352 1.40068 19.2858 1.76404 19.2858 2.14293V16.4286C19.2858 16.8075 19.1352 17.1709 18.8674 17.4388C18.5995 17.7066 18.2361 17.8572 17.8572 17.8572H6.42864Z" stroke="black" stroke-width="1.5" stroke-linecap="round" stroke-linejoin="round"/>
<path d="M8.57153 7.14286C8.57153 6.71905 8.6972 6.30475 8.93268 5.95236C9.16813 5.59996 9.5028 5.3253 9.89435 5.16312C10.2859 5.00093 10.7168 4.95849 11.1324 5.04118C11.5481 5.12386 11.9299 5.32795 12.2296 5.62763C12.5293 5.92732 12.7334 6.30913 12.8161 6.72482C12.8988 7.14049 12.8563 7.57135 12.6941 7.9629C12.5319 8.35445 12.2573 8.68912 11.9049 8.92458C11.5525 9.16005 11.1382 9.28572 10.7144 9.28572V10.7143" stroke="black" stroke-width="1.5" stroke-linecap="round" stroke-linejoin="round"/>
<path d="M10.7143 14.2858C10.5171 14.2858 10.3572 14.1259 10.3572 13.9287C10.3572 13.7314 10.5171 13.5715 10.7143 13.5715" stroke="black" stroke-width="1.5" stroke-linecap="round" stroke-linejoin="round"/>
<path d="M10.7144 14.2858C10.9116 14.2858 11.0715 14.1259 11.0715 13.9287C11.0715 13.7314 10.9116 13.5715 10.7144 13.5715" stroke="black" stroke-width="1.5" stroke-linecap="round" stroke-linejoin="round"/>
</g>
<defs>
<clipPath id="clip0_156_244">
<rect width="20" height="20" fill="white"/>
</clipPath>
</defs>
</svg>
