<svg width="56" height="60" viewBox="0 0 56 60" fill="none" xmlns="http://www.w3.org/2000/svg">
<path d="M49.5312 17.7075V56.5H6.46875V3.5H35.3237L49.5312 17.7075ZM36.2812 16.75H43.8638L36.2812 9.16748V16.75ZM46.2188 20.0625H32.9688V6.8125H9.78125V53.1875H46.2188V20.0625ZM13.0938 26.6875H23.0312V36.625H13.0938V26.6875ZM16.4062 33.3125H19.7188V30H16.4062V33.3125ZM13.0938 13.4375H23.0312V23.375H13.0938V13.4375ZM16.4062 20.0625H19.7188V16.75H16.4062V20.0625ZM26.3438 30H42.9062V33.3125H26.3438V30ZM13.0938 39.9375H23.0312V49.875H13.0938V39.9375ZM16.4062 46.5625H19.7188V43.25H16.4062V46.5625ZM26.3438 43.25H42.9062V46.5625H26.3438V43.25Z" fill="#2C2C2C"/>
</svg>
